<svg  viewBox="0 0 2746 984" fill="none" xmlns="http://www.w3.org/2000/svg">
<path d="M491.985 1.33996e-05C394.679 1.33996e-05 299.559 28.8536 218.653 82.9135C137.746 136.973 74.6873 213.811 37.4502 303.709C0.213036 393.608 -9.52972 492.53 9.45361 587.965C28.4369 683.401 75.2939 771.063 144.099 839.869C212.904 908.674 300.568 955.531 396.003 974.514C491.439 993.497 590.36 983.755 680.259 946.518C770.157 909.28 846.995 846.221 901.055 765.315C955.115 684.408 983.969 589.289 983.969 491.984C983.984 427.372 971.269 363.388 946.549 303.691C921.83 243.994 885.592 189.753 839.904 144.065C794.216 98.3766 739.974 62.1376 680.277 37.4184C620.58 12.6993 556.597 -0.0150671 491.985 1.33996e-05V1.33996e-05ZM611.021 482.915L392.922 737.517C389.875 740.745 386.2 743.315 382.125 745.073C378.049 746.83 373.657 747.736 369.218 747.736C364.78 747.736 360.387 746.83 356.311 745.073C352.235 743.315 348.561 740.745 345.514 737.517L127.416 482.915C123.054 477.865 129.826 471.437 136.369 474.421C209.704 507.038 289.071 523.893 369.333 523.893C449.594 523.893 528.961 507.038 602.297 474.421C608.495 471.437 615.268 477.865 611.021 482.915ZM848.059 509.546C774.723 476.856 695.33 459.962 615.038 459.962C534.746 459.962 455.353 476.856 382.017 509.546C375.474 512.53 368.702 506.102 373.063 501.051L591.162 246.336C594.208 243.127 597.875 240.571 601.94 238.824C606.006 237.078 610.384 236.177 614.808 236.177C619.233 236.177 623.611 237.078 627.677 238.824C631.742 240.571 635.409 243.127 638.455 246.336L856.553 500.937C861.374 506.102 854.487 512.415 848.059 509.546V509.546Z" fill="#7DF9FF"/>
<path d="M1167.75 181.141C1167.75 112.268 1213.66 77.831 1289.88 77.831C1315.93 77.4518 1341.87 81.3291 1366.67 89.3099L1383.43 156.348C1357.38 143.021 1328.43 136.355 1299.18 136.948C1268.87 136.948 1239.14 144.523 1239.14 175.287C1239.14 242.897 1394.22 215.809 1394.22 344.487C1394.22 419.1 1343.95 449.403 1266.12 449.403C1238.99 450.407 1211.87 447.114 1185.77 439.646L1162.01 368.248C1186.34 383.4 1215.04 389.943 1257.17 389.943C1303.08 389.943 1322.6 376.971 1322.6 350.455C1322.37 281.122 1167.75 307.065 1167.75 181.141Z" fill="#7DF9FF"/>
<path d="M1408.92 158.985H1443.35V102.738L1515.9 77.3701V158.985H1597.51L1582.94 217.412H1515.9V301.208C1515.9 365.49 1538.05 390.857 1599.12 390.857L1572.6 450.892C1487.78 450.892 1443.35 403.828 1443.35 306.028V217.527H1393.99L1408.92 158.985Z" fill="#7DF9FF"/>
<path d="M1607.27 303.274C1607.27 205.474 1649.51 152.441 1747.89 152.441C1846.26 152.441 1888.39 204.9 1888.39 303.274C1888.39 401.648 1845.69 450.893 1748.46 450.893C1651.24 450.893 1607.27 401.189 1607.27 303.274ZM1683.49 303.274C1683.49 366.638 1704.61 390.858 1748.46 390.858C1792.31 390.858 1812.17 367.097 1812.17 303.274C1812.17 239.452 1791.62 211.443 1748.46 211.443C1705.3 211.443 1683.49 240.485 1683.49 303.274V303.274Z" fill="#7DF9FF"/>
<path d="M1911.12 300.639C1911.12 192.508 1958.75 152.446 2045.76 152.446C2068.81 152.162 2091.72 156.051 2113.37 163.925L2128.64 229.011C2107.44 217.021 2083.3 211.215 2058.97 212.252C2008.11 212.252 1986.53 239.8 1986.53 300.409C1986.53 361.017 2008.11 390.633 2059.42 390.633C2084.65 390.121 2109.5 384.416 2132.43 373.874L2116.82 439.303C2093.93 447.485 2069.72 451.376 2045.42 450.782C1958.75 450.897 1911.12 408.196 1911.12 300.639Z" fill="#7DF9FF"/>
<path d="M2160.9 445.5V66.6964L2233.9 50.5107V280.089C2263.63 266.544 2320.91 230.386 2327.46 165.989H2405.86C2402.07 213.053 2372.8 256.327 2336.98 288.698C2371.03 336.776 2397.79 389.612 2416.42 445.5H2339.85C2332.85 413.13 2307.94 366.066 2279.36 329.334C2264.83 337.099 2249.41 343.074 2233.44 347.126V445.5H2160.9Z" fill="#7DF9FF"/>
<path d="M1167.74 663.254C1167.74 594.381 1213.66 559.944 1289.99 559.944C1316.01 559.573 1341.91 563.451 1366.67 571.423L1383.43 638.461C1357.36 625.187 1328.43 618.525 1299.18 619.061C1268.87 619.061 1239.14 626.636 1239.14 657.4C1239.14 725.01 1394.22 698.036 1394.22 826.599C1394.22 901.212 1343.95 931.515 1266.12 931.515C1238.99 932.539 1211.86 929.246 1185.77 921.758L1161.89 850.475C1186.23 865.512 1214.92 872.055 1257.05 872.055C1302.97 872.055 1322.48 859.083 1322.48 832.567C1322.36 763.35 1167.74 789.292 1167.74 663.254Z" fill="#7DF9FF"/>
<path d="M1412.7 641.098H1447.14V584.851L1519.69 559.483V641.098H1600.61L1586.04 699.525H1519V783.321C1519 847.603 1541.15 873.085 1602.22 873.085L1575.7 933.119C1490.88 933.119 1446.45 886.056 1446.45 788.141V699.64H1397.9L1412.7 641.098Z" fill="#7DF9FF"/>
<path d="M1728.95 931.401C1644.58 931.401 1610.03 901.213 1610.03 840.604C1610.03 774.715 1650.55 752.446 1718.62 752.446C1739.27 752.763 1759.87 754.605 1780.26 757.955V751.413C1780.26 708.137 1750.07 694.018 1703.58 694.018C1680.38 693.878 1657.25 696.576 1634.7 702.053L1648.25 642.134C1671.12 637.005 1694.49 634.463 1717.93 634.557C1802.3 634.557 1852.57 669.683 1852.57 755.66C1852.57 807.545 1852.57 860.462 1847.64 911.888C1809.61 925.624 1769.37 932.238 1728.95 931.401V931.401ZM1779.8 866.547V813.629C1763.56 809.315 1746.76 807.494 1729.98 808.233C1693.82 808.233 1683.03 817.417 1683.03 840.604C1683.03 861.151 1693.25 871.941 1732.16 871.941C1748.21 872.327 1764.24 870.512 1779.8 866.547V866.547Z" fill="#7DF9FF"/>
<path d="M1994.91 933.125C1943.03 933.125 1892.75 914.185 1892.75 808.694V547.549L1965.18 532.971V789.295C1965.18 857.365 1977.69 877.912 2016.61 877.912L1994.91 933.125Z" fill="#7DF9FF"/>
<path d="M2044.16 927.604V548.8L2117.16 532.499V762.077C2146.89 748.532 2204.17 712.374 2210.6 648.092H2289.34C2285.56 695.041 2256.4 738.316 2220.47 770.801C2254.53 818.827 2281.3 871.628 2299.9 927.489H2223.69C2216.68 895.118 2191.77 848.055 2163.08 811.322C2148.55 819.095 2133.13 825.07 2117.16 829.115V927.489L2044.16 927.604Z" fill="#7DF9FF"/>
<path d="M2377.16 813.623C2385.31 849.322 2409.65 871.935 2468.99 871.935C2491.66 871.221 2514.17 867.791 2536.03 861.718L2516.51 923.819C2495.43 928.712 2473.87 931.251 2452.23 931.395C2359.25 931.395 2301.97 890.875 2301.97 780.563C2301.97 677.942 2349.5 634.666 2432.26 634.666C2505.72 634.666 2550.61 676.22 2550.61 765.525C2551 781.764 2548.99 797.973 2544.64 813.623H2377.16ZM2375.55 752.439H2478.86C2478.86 714.674 2459.92 692.98 2432.95 692.98C2405.97 692.98 2381.18 708.705 2375.55 752.439V752.439Z" fill="#7DF9FF"/>
<path d="M2729.1 634.666L2745.86 696.767C2717.16 696.462 2688.47 698.112 2660 701.704C2657.21 734.417 2656.1 767.251 2656.67 800.077V927.607H2584.24V799.503C2584.16 750.579 2586.69 701.686 2591.81 653.032C2619.36 641.094 2681 634.666 2729.1 634.666Z" fill="#7DF9FF"/>
</svg>
